<svg xmlns="http://www.w3.org/2000/svg" viewBox="0 0 32 32" fill="none">
  <defs>
    <clipPath id="przm-tri">
      <path d="M16 4 L28 28 L4 28 Z"/>
    </clipPath>
  </defs>
  <g clip-path="url(#przm-tri)">
    <path d="M 16 20 L 16.000 2.000 A 18 18 0 0 1 20.659 2.613 Z" fill="#ea4b3c"/>
    <path d="M 16 20 L 20.659 2.613 A 18 18 0 0 1 25.000 4.412 Z" fill="#ed6034"/>
    <path d="M 16 20 L 25.000 4.412 A 18 18 0 0 1 28.728 7.272 Z" fill="#f0752c"/>
    <path d="M 16 20 L 28.728 7.272 A 18 18 0 0 1 31.588 11.000 Z" fill="#f38a24"/>
    <path d="M 16 20 L 31.588 11.000 A 18 18 0 0 1 33.387 15.341 Z" fill="#f39b22"/>
    <path d="M 16 20 L 33.387 15.341 A 18 18 0 0 1 34.000 20.000 Z" fill="#f0a826"/>
    <path d="M 16 20 L 34.000 20.000 A 18 18 0 0 1 33.387 24.659 Z" fill="#edb52a"/>
    <path d="M 16 20 L 33.387 24.659 A 18 18 0 0 1 31.588 29.000 Z" fill="#eac22e"/>
    <path d="M 16 20 L 31.588 29.000 A 18 18 0 0 1 28.728 32.728 Z" fill="#d1c837"/>
    <path d="M 16 20 L 28.728 32.728 A 18 18 0 0 1 25.000 35.588 Z" fill="#a5c745"/>
    <path d="M 16 20 L 25.000 35.588 A 18 18 0 0 1 20.659 37.387 Z" fill="#78c653"/>
    <path d="M 16 20 L 20.659 37.387 A 18 18 0 0 1 16.000 38.000 Z" fill="#4ac561"/>
    <path d="M 16 20 L 16.000 38.000 A 18 18 0 0 1 11.341 37.387 Z" fill="#35bf7b"/>
    <path d="M 16 20 L 11.341 37.387 A 18 18 0 0 1 7.000 35.588 Z" fill="#37b6a1"/>
    <path d="M 16 20 L 7.000 35.588 A 18 18 0 0 1 3.272 32.728 Z" fill="#38acc6"/>
    <path d="M 16 20 L 3.272 32.728 A 18 18 0 0 1 0.412 29.000 Z" fill="#3aa3ec"/>
    <path d="M 16 20 L 0.412 29.000 A 18 18 0 0 1 -1.387 24.659 Z" fill="#4095fb"/>
    <path d="M 16 20 L -1.387 24.659 A 18 18 0 0 1 -2.000 20.000 Z" fill="#4b83f2"/>
    <path d="M 16 20 L -2.000 20.000 A 18 18 0 0 1 -1.387 15.341 Z" fill="#5670ea"/>
    <path d="M 16 20 L -1.387 15.341 A 18 18 0 0 1 0.412 11.000 Z" fill="#615ee1"/>
    <path d="M 16 20 L 0.412 11.000 A 18 18 0 0 1 3.272 7.272 Z" fill="#6c55db"/>
    <path d="M 16 20 L 3.272 7.272 A 18 18 0 0 1 7.000 4.412 Z" fill="#7955d7"/>
    <path d="M 16 20 L 7.000 4.412 A 18 18 0 0 1 11.341 2.613 Z" fill="#8655d2"/>
    <path d="M 16 20 L 11.341 2.613 A 18 18 0 0 1 16.000 2.000 Z" fill="#9355ce"/>
  </g>
  <path d="M16 4 L28 28 L4 28 Z" fill="none" stroke="#ebdbb2" stroke-opacity="0.4" stroke-width="0.5" stroke-linejoin="round"/>
</svg>
